<svg xmlns="http://www.w3.org/2000/svg" aria-hidden="true" style="position:absolute;width:0;height:0;overflow:hidden">
  <defs>
    <symbol id="clients1" viewBox="0 0 32 32">
      <path d="M9.694 9.751c0 2.24-1.537 4.056-3.434 4.056s-3.433-1.816-3.433-4.056S4.364 5.696 6.26 5.696s3.434 1.816 3.434 4.055z"/>
      <path d="M10.174 16.903c.248-.151.522-.25.807-.297a7.435 7.435 0 0 1-1.222-2.732c-.065-.382-.588-.427-.976-.11-.727.593-1.576.99-2.522.99-.965 0-1.852-.384-2.564-1.026a.692.692 0 0 0-.823-.077 6.406 6.406 0 0 0-2.82 3.691 1.385 1.385 0 0 0 1.331 1.765h6.187c.741-.854 1.615-1.6 2.603-2.203zM22.307 9.751c0 2.24 1.537 4.056 3.434 4.056s3.434-1.816 3.434-4.056-1.537-4.055-3.434-4.055-3.434 1.816-3.434 4.055z"/>
      <path d="M21.826 16.903a2.26 2.26 0 0 0-.807-.297 7.435 7.435 0 0 0 1.222-2.732c.065-.382.588-.427.976-.11.727.593 1.576.99 2.522.99.965 0 1.852-.384 2.564-1.026a.691.691 0 0 1 .823-.077 6.402 6.402 0 0 1 2.82 3.691 1.385 1.385 0 0 1-1.331 1.765h-6.187a11.104 11.104 0 0 0-2.603-2.203zM25.356 23.592a9.836 9.836 0 0 0-4.212-5.599 1.06 1.06 0 0 0-1.267.101c-1.083.953-2.422 1.521-3.876 1.521-1.483 0-2.847-.59-3.94-1.577a1.059 1.059 0 0 0-1.264-.117 9.839 9.839 0 0 0-4.333 5.671 2.127 2.127 0 0 0 2.045 2.713h14.804a2.127 2.127 0 0 0 2.045-2.713z"/>
      <path d="M21.277 11.928c0 3.442-2.363 6.233-5.277 6.233s-5.277-2.791-5.277-6.233c0-3.442 2.362-6.232 5.277-6.232s5.277 2.79 5.277 6.232z"/>
    </symbol>
    <symbol id="hand-heart" viewBox="0 0 32 32">
      <path d="M12.44 15.333h2.893a6 6 0 0 1 6 6h-9.335l.001 1.333h10.667v-1.333a7.405 7.405 0 0 0-1.199-4.029l.018.029H25.335a6.665 6.665 0 0 1 6.002 3.762l.017.04C28.201 25.296 23.095 28 17.333 28c-3.681 0-6.8-.787-9.333-2.167V13.428a9.286 9.286 0 0 1 4.459 1.92l-.019-.015zM5.333 12c.681 0 1.243.511 1.323 1.171l.001.006.009.156v12c0 .736-.597 1.333-1.333 1.333H2.666a1.333 1.333 0 0 1-1.333-1.333v-12c0-.736.597-1.333 1.333-1.333h2.667zm12.862-7.233.472.473.472-.472a3.333 3.333 0 1 1 4.713 4.714l-5.186 5.184-5.187-5.187a3.333 3.333 0 1 1 4.714-4.713z"/>
    </symbol>
    <symbol id="medal" viewBox="0 0 32 32">
      <path d="M16 21.333a9.333 9.333 0 1 1 0-18.666 9.333 9.333 0 1 1 0 18.666zM16 8c-.379 0-.632.454-1.139 1.363l-.131.235c-.144.258-.216.387-.328.473s-.252.117-.532.18l-.255.058c-.984.223-1.476.334-1.593.71s.218.769.889 1.553l.174.203c.191.223.286.334.329.472s.028.287 0 .584l-.026.271c-.101 1.047-.152 1.57.154 1.802s.767.021 1.688-.404l.238-.11c.262-.121.393-.181.531-.181s.27.06.531.181l.238.11c.921.424 1.382.636 1.688.404s.256-.756.154-1.802l-.026-.271c-.029-.297-.043-.446 0-.584s.138-.249.329-.472l.174-.203c.671-.784 1.006-1.177.889-1.553s-.609-.488-1.593-.71l-.255-.058c-.28-.063-.419-.095-.532-.18s-.184-.214-.328-.473l-.131-.235C16.63 8.454 16.377 8 15.998 8z"/>
      <path d="m9.457 21.255-.505 1.842c-.838 3.056-1.257 4.584-.698 5.42.196.293.459.528.764.684.87.443 2.214-.257 4.901-1.657.894-.466 1.341-.699 1.816-.749.176-.019.353-.019.53 0 .475.051.922.284 1.816.749 2.687 1.4 4.031 2.1 4.901 1.657a2.03 2.03 0 0 0 .764-.684c.559-.837.14-2.364-.698-5.42l-.505-1.842c-1.848 1.309-4.106 2.078-6.543 2.078s-4.694-.769-6.543-2.078z"/>
    </symbol>
    <symbol id="fork-and-spoon" viewBox="0 0 32 32">
      <path d="M6.188 26.875 8.2 28.994l7.314-6.943-2.122-2.015zM30.718 5.599c-2.053-2.162-5.88-1.861-8.323.458-1.485 1.411-2.134 3.354-2.139 4.983-.004 1.431-.119 2.416-1.23 3.646l-1.455 1.382 2.121 2.015 1.346-1.278c1.284-1.045 2.275-1.109 3.703-1.039 1.627.079 3.603-.467 5.089-1.878 2.441-2.319 2.941-6.126.888-8.288z"/>
      <path d="M13.72 11.879c.14-1.531.067-2.607-2.158-4.705L7.57 3.383c-1.206-1.145-2.918.575-1.685 1.747l4.183 3.97a.667.667 0 0 1 .024.942l-.123.13a.666.666 0 0 1-.942.023L4.826 6.208c-.689-.655-1.336-.387-1.758.058s-.656 1.104.033 1.759l4.201 3.988a.666.666 0 0 1 .024.942l-.123.129a.666.666 0 0 1-.942.025L2.079 9.138C.845 7.966-.783 9.765.423 10.909l3.992 3.792c2.21 2.114 3.288 2.131 4.811 1.911 1.226-.177 2.117-.477 3.498.836l12.161 11.546 2.012-2.118-12.161-11.547c-1.382-1.312-1.128-2.217-1.016-3.45z"/>
    </symbol>
    <symbol id="cake" viewBox="0 0 32 32">
      <path d="M27.853 17.333v1.333h-1.16c-.987 0-1.787.8-1.787 1.8v.4c0 1-.8 1.8-1.8 1.8a1.79 1.79 0 0 1-1.787-1.8v-.4c0-1-.813-1.8-1.8-1.8s-1.787.8-1.787 1.8v.4a1.8 1.8 0 0 1-3.6 0v-.4c0-1-.8-1.8-1.787-1.8s-1.8.8-1.8 1.8v.4c0 1-.8 1.8-1.787 1.8-1 0-1.8-.8-1.8-1.8v-.427c0-.987-.787-1.787-1.76-1.8H4.145v-1.307c0-1.84 1.387-3.4 3.267-3.853.373-.093.76-.147 1.173-.147h14.827c.413 0 .8.053 1.173.147 1.88.453 3.267 2.013 3.267 3.853zM24.587 9.56v1.88a5.735 5.735 0 0 0-1.173-.107H8.587c-.4 0-.787.04-1.173.12V9.56c0-1.6 1.44-2.893 3.227-2.893h10.72c1.787 0 3.227 1.293 3.227 2.893z"/>
      <path d="M11.667 4.731v1.947H10.64c-.347 0-.667.04-.973.12V4.731c0-.467.453-.867 1-.867s1 .4 1 .867zM22.333 4.438v2.36a3.317 3.317 0 0 0-.973-.133h-1.027V4.438c0-.547.453-1 1-1s1 .453 1 1zM17 3.76v2.907h-2V3.76c0-.6.453-1.093 1-1.093s1 .493 1 1.093zM29.333 28.334c0 .547-.453 1-1 1H3.666c-.547 0-1-.453-1-1s.453-1 1-1h.48v-6.693h.813v.093c0 1.787 1.173 3.44 2.92 3.827 1.36.32 2.653-.12 3.533-.987a1.303 1.303 0 0 1 1.84-.013c.693.68 1.64 1.107 2.68 1.107s1.987-.413 2.68-1.107a1.317 1.317 0 0 1 1.84.013 3.742 3.742 0 0 0 3.533.987c1.747-.387 2.92-2.04 2.92-3.827v-.067h.947v6.667h.48c.547 0 1 .453 1 1z"/>
    </symbol>
    <symbol id="instagram" viewBox="0 0 32 32">
      <path d="M31.969 9.408c-.075-1.7-.35-2.869-.744-3.882a7.803 7.803 0 0 0-1.85-2.838A7.867 7.867 0 0 0 26.543.844C25.524.45 24.361.175 22.661.1 20.948.019 20.404 0 16.06 0s-4.888.019-6.595.094c-1.7.075-2.869.35-3.882.744a7.803 7.803 0 0 0-2.838 1.85A7.867 7.867 0 0 0 .901 5.52C.507 6.539.232 7.702.157 9.402c-.081 1.713-.1 2.257-.1 6.601s.019 4.888.094 6.595c.075 1.7.35 2.869.744 3.882a7.895 7.895 0 0 0 1.85 2.838 7.867 7.867 0 0 0 2.832 1.844c1.019.394 2.182.669 3.882.744 1.706.075 2.25.094 6.595.094s4.888-.018 6.595-.094c1.7-.075 2.869-.35 3.882-.744a8.181 8.181 0 0 0 4.682-4.682c.394-1.019.669-2.182.744-3.882.075-1.707.094-2.251.094-6.595s-.006-4.888-.081-6.595zm-2.882 13.065c-.069 1.563-.331 2.407-.55 2.969a5.307 5.307 0 0 1-3.038 3.038c-.563.219-1.413.481-2.969.55-1.688.075-2.194.094-6.464.094s-4.782-.018-6.464-.094c-1.563-.069-2.407-.331-2.969-.55a4.926 4.926 0 0 1-1.838-1.194 4.974 4.974 0 0 1-1.194-1.838c-.219-.563-.481-1.413-.55-2.969-.075-1.688-.094-2.194-.094-6.464s.019-4.782.094-6.464c.069-1.563.331-2.407.55-2.969a4.868 4.868 0 0 1 1.2-1.838A4.974 4.974 0 0 1 6.639 3.55c.563-.219 1.413-.481 2.969-.55 1.688-.075 2.194-.094 6.464-.094 4.276 0 4.782.019 6.464.094 1.563.069 2.407.331 2.969.55a4.914 4.914 0 0 1 1.838 1.194 4.974 4.974 0 0 1 1.194 1.838c.219.563.481 1.413.55 2.969.075 1.688.094 2.194.094 6.464s-.019 4.77-.094 6.457z"/>
      <path d="M16.059 7.782c-4.538 0-8.22 3.682-8.22 8.22s3.682 8.22 8.22 8.22 8.22-3.682 8.22-8.22-3.682-8.22-8.22-8.22zm0 13.553a5.333 5.333 0 0 1 0-10.664 5.333 5.333 0 0 1 0 10.664zM26.524 7.457a1.919 1.919 0 1 1-3.838 0 1.919 1.919 0 0 1 3.838 0z"/>
    </symbol>
    <symbol id="facebook" viewBox="0 0 32 32">
      <path d="M21.329 5.313h2.921V.225C23.746.156 22.013 0 19.994 0c-4.212 0-7.097 2.649-7.097 7.519V12H8.249v5.688h4.648V32h5.699V17.689h4.46l.708-5.688h-5.169V8.082c.001-1.644.444-2.769 2.735-2.769z"/>
    </symbol>
    <symbol id="scroll-up" viewBox="0 0 32 32">
      <path fill="#fff" d="M4.5 19.6 15.7 8.367c.133-.133.278-.228.433-.283s.322-.084.5-.084.344.028.5.084c.156.055.3.149.433.283L28.799 19.6c.311.311.467.7.467 1.167s-.167.867-.5 1.2c-.333.333-.722.5-1.167.5s-.833-.167-1.167-.5l-9.8-9.8-9.8 9.8c-.311.311-.694.467-1.149.467s-.851-.167-1.184-.5-.5-.722-.5-1.167c0-.444.167-.833.5-1.167z" style="fill:var(--color1, #fff)"/>
    </symbol>
    <symbol id="telegram" viewBox="0 0 32 32">
      <path d="m27.553 4.956-23.64 9.116c-1.613.648-1.604 1.548-.296 1.949l6.069 1.893 14.043-8.86c.664-.404 1.271-.187.772.256L13.124 19.579l-.419 6.256c.613 0 .884-.281 1.228-.613l2.948-2.867 6.132 4.529c1.131.623 1.943.303 2.224-1.047l4.025-18.971c.412-1.652-.631-2.4-1.709-1.912z"/>
    </symbol>
    <symbol id="whatsapp" viewBox="0 0 32 32">
      <path d="M26.88 9.12c-3.84-5.92-11.68-7.68-17.76-4-5.92 3.68-7.84 11.68-4 17.6l.32.48L4.16 28l4.8-1.28.48.32c2.08 1.12 4.32 1.76 6.56 1.76 2.4 0 4.8-.64 6.88-1.92 5.92-3.84 7.68-11.68 4-17.76zm-3.36 12.32c-.64.96-1.44 1.6-2.56 1.76-.64 0-1.44.32-4.64-.96-2.72-1.28-4.96-3.36-6.56-5.76-.96-1.12-1.44-2.56-1.6-4 0-1.28.48-2.4 1.28-3.2.32-.32.64-.48.96-.48h.8c.32 0 .64 0 .8.64.32.8 1.12 2.72 1.12 2.88.16.16.16.48 0 .64.16.32 0 .64-.16.8s-.32.48-.48.64c-.32.16-.48.48-.32.8.64.96 1.44 1.92 2.24 2.72.96.8 1.92 1.44 3.04 1.92.32.16.64.16.8-.16s.96-1.12 1.28-1.44c.32-.32.48-.32.8-.16l2.56 1.28c.32.16.64.32.8.48.16.48.16 1.12-.16 1.6z"/>
    </symbol>
    <symbol id="phone" viewBox="0 0 32 32">
      <path d="m22.075 17.208-.607.604s-1.443 1.435-5.383-2.482-2.497-5.353-2.497-5.353l.382-.38c.942-.937 1.031-2.441.209-3.539l-1.681-2.246c-1.017-1.359-2.983-1.538-4.149-.379L6.256 5.514c-.578.575-.966 1.32-.919 2.147.12 2.115 1.077 6.665 6.417 11.975 5.662 5.63 10.975 5.854 13.148 5.651.687-.064 1.285-.414 1.766-.893l1.894-1.883c1.279-1.271.918-3.451-.718-4.34l-2.547-1.385c-1.074-.584-2.383-.412-3.222.422z"/>
    </symbol>
     <symbol id="whatsapp" viewBox="0 0 32 32">
      <path d="M16 3.2C8.931 3.2 3.2 8.931 3.2 16c0 2.401.675 4.64 1.825 6.56l-1.71 6.24 6.373-1.673a12.727 12.727 0 0 0 6.313 1.673c7.069 0 12.8-5.731 12.8-12.8S23.07 3.2 16.001 3.2zm-4.381 6.829c.208 0 .422-.001.606.008.228.005.477.022.715.548.283.625.898 2.193.977 2.352s.135.346.025.554c-.105.213-.159.342-.313.531-.159.183-.333.411-.477.55-.159.159-.323.333-.14.65s.821 1.355 1.762 2.194c1.211 1.082 2.232 1.414 2.55 1.573s.502.134.685-.079c.189-.208.793-.922 1.006-1.24.208-.318.42-.263.708-.158.292.105 1.851.872 2.169 1.031s.526.238.606.367c.082.133.082.768-.181 1.508-.263.739-1.557 1.454-2.137 1.504-.586.054-1.132.263-3.806-.79-3.226-1.27-5.26-4.574-5.419-4.787-.159-.208-1.292-1.718-1.292-3.275 0-1.563.819-2.328 1.106-2.646.292-.318.635-.396.848-.396z"/>
    </symbol>
    <symbol id="telegram" viewBox="0 0 32 32">
      <path d="M3.887 15.744c8.379-3.686 19.221-8.18 20.718-8.802 3.926-1.628 5.131-1.316 4.53 2.289-.431 2.591-1.676 11.171-2.668 16.511-.589 3.167-1.909 3.542-3.986 2.172-.999-.659-6.039-3.993-7.133-4.775-.999-.713-2.376-1.571-.649-3.261.615-.602 4.644-4.449 7.783-7.444.411-.393-.105-1.039-.58-.724a3852.393 3852.393 0 0 0-10.845 7.208c-1.128.766-2.211 1.117-4.156.559-1.469-.422-2.905-.925-3.463-1.117-2.151-.739-1.641-1.695.449-2.615z"/>
    </symbol>
    <!-- Modal -->
     <symbol id="phone-form" viewBox="0 0 24 32">
      <path d="m19.635 18.487-2.451-.28a1.92 1.92 0 0 0-1.582.55l-1.775 1.775a14.514 14.514 0 0 1-6.359-6.359l1.785-1.785c.415-.415.618-.994.55-1.582l-.28-2.432a1.931 1.931 0 0 0-1.92-1.708H5.934c-1.09 0-1.997.907-1.93 1.997.511 8.24 7.102 14.821 15.332 15.332 1.09.068 1.997-.839 1.997-1.93v-1.669a1.913 1.913 0 0 0-1.698-1.911z"/>
    </symbol>
    <symbol id="email-form" viewBox="0 0 24 32">
      <path d="M20 8H4c-1.1 0-1.99.9-1.99 2L2 22c0 1.1.9 2 2 2h16c1.1 0 2-.9 2-2V10c0-1.1-.9-2-2-2zm-.4 4.25-7.07 4.42c-.32.2-.74.2-1.06 0L4.4 12.25a.85.85 0 1 1 .9-1.44L12 15l6.7-4.19a.85.85 0 1 1 .9 1.44z"/>
    </symbol>
    <symbol id="person-form" viewBox="0 0 32 32">
      <path d="M16 16c2.947 0 5.333-2.387 5.333-5.333S18.946 5.334 16 5.334c-2.947 0-5.333 2.387-5.333 5.333S13.054 16 16 16zm0 2.667c-3.56 0-10.667 1.787-10.667 5.333v1.333c0 .733.6 1.333 1.333 1.333h18.667c.733 0 1.333-.6 1.333-1.333V24c0-3.547-7.107-5.333-10.667-5.333z"/>
    </symbol>
    <symbol id="close-form" viewBox="0 0 32 32">
      <path d="M32 3.223 28.777 0 16 12.777 3.223 0 0 3.223 12.777 16 0 28.777 3.223 32 16 19.223 28.777 32 32 28.777 19.223 16 32 3.223z"/>
    </symbol>
  </defs>
</svg>




  

