<svg xmlns="http://www.w3.org/2000/svg" aria-hidden="true" style="position:absolute;width:0;height:0;overflow:hidden">
  <defs>
    <symbol id="clients1" viewBox="0 0 32 32">
      <path d="M9.694 9.751c0 2.24-1.537 4.056-3.434 4.056s-3.433-1.816-3.433-4.056S4.364 5.696 6.26 5.696s3.434 1.816 3.434 4.055z"/>
      <path d="M10.174 16.903c.248-.151.522-.25.807-.297a7.435 7.435 0 0 1-1.222-2.732c-.065-.382-.588-.427-.976-.11-.727.593-1.576.99-2.522.99-.965 0-1.852-.384-2.564-1.026a.692.692 0 0 0-.823-.077 6.406 6.406 0 0 0-2.82 3.691 1.385 1.385 0 0 0 1.331 1.765h6.187c.741-.854 1.615-1.6 2.603-2.203zM22.307 9.751c0 2.24 1.537 4.056 3.434 4.056s3.434-1.816 3.434-4.056-1.537-4.055-3.434-4.055-3.434 1.816-3.434 4.055z"/>
      <path d="M21.826 16.903a2.26 2.26 0 0 0-.807-.297 7.435 7.435 0 0 0 1.222-2.732c.065-.382.588-.427.976-.11.727.593 1.576.99 2.522.99.965 0 1.852-.384 2.564-1.026a.691.691 0 0 1 .823-.077 6.402 6.402 0 0 1 2.82 3.691 1.385 1.385 0 0 1-1.331 1.765h-6.187a11.104 11.104 0 0 0-2.603-2.203zM25.356 23.592a9.836 9.836 0 0 0-4.212-5.599 1.06 1.06 0 0 0-1.267.101c-1.083.953-2.422 1.521-3.876 1.521-1.483 0-2.847-.59-3.94-1.577a1.059 1.059 0 0 0-1.264-.117 9.839 9.839 0 0 0-4.333 5.671 2.127 2.127 0 0 0 2.045 2.713h14.804a2.127 2.127 0 0 0 2.045-2.713z"/>
      <path d="M21.277 11.928c0 3.442-2.363 6.233-5.277 6.233s-5.277-2.791-5.277-6.233c0-3.442 2.362-6.232 5.277-6.232s5.277 2.79 5.277 6.232z"/>
    </symbol>
    <symbol id="hand-heart" viewBox="0 0 32 32">
      <path d="M12.44 15.333h2.893a6 6 0 0 1 6 6h-9.335l.001 1.333h10.667v-1.333a7.405 7.405 0 0 0-1.199-4.029l.018.029H25.335a6.665 6.665 0 0 1 6.002 3.762l.017.04C28.201 25.296 23.095 28 17.333 28c-3.681 0-6.8-.787-9.333-2.167V13.428a9.286 9.286 0 0 1 4.459 1.92l-.019-.015zM5.333 12c.681 0 1.243.511 1.323 1.171l.001.006.009.156v12c0 .736-.597 1.333-1.333 1.333H2.666a1.333 1.333 0 0 1-1.333-1.333v-12c0-.736.597-1.333 1.333-1.333h2.667zm12.862-7.233.472.473.472-.472a3.333 3.333 0 1 1 4.713 4.714l-5.186 5.184-5.187-5.187a3.333 3.333 0 1 1 4.714-4.713z"/>
    </symbol>
    <symbol id="medal" viewBox="0 0 32 32">
      <path d="M16 21.333a9.333 9.333 0 1 1 0-18.666 9.333 9.333 0 1 1 0 18.666zM16 8c-.379 0-.632.454-1.139 1.363l-.131.235c-.144.258-.216.387-.328.473s-.252.117-.532.18l-.255.058c-.984.223-1.476.334-1.593.71s.218.769.889 1.553l.174.203c.191.223.286.334.329.472s.028.287 0 .584l-.026.271c-.101 1.047-.152 1.57.154 1.802s.767.021 1.688-.404l.238-.11c.262-.121.393-.181.531-.181s.27.06.531.181l.238.11c.921.424 1.382.636 1.688.404s.256-.756.154-1.802l-.026-.271c-.029-.297-.043-.446 0-.584s.138-.249.329-.472l.174-.203c.671-.784 1.006-1.177.889-1.553s-.609-.488-1.593-.71l-.255-.058c-.28-.063-.419-.095-.532-.18s-.184-.214-.328-.473l-.131-.235C16.63 8.454 16.377 8 15.998 8z"/>
      <path d="m9.457 21.255-.505 1.842c-.838 3.056-1.257 4.584-.698 5.42.196.293.459.528.764.684.87.443 2.214-.257 4.901-1.657.894-.466 1.341-.699 1.816-.749.176-.019.353-.019.53 0 .475.051.922.284 1.816.749 2.687 1.4 4.031 2.1 4.901 1.657a2.03 2.03 0 0 0 .764-.684c.559-.837.14-2.364-.698-5.42l-.505-1.842c-1.848 1.309-4.106 2.078-6.543 2.078s-4.694-.769-6.543-2.078z"/>
    </symbol>
    <symbol id="fork-and-spoon" viewBox="0 0 32 32">
      <path d="M6.188 26.875 8.2 28.994l7.314-6.943-2.122-2.015zM30.718 5.599c-2.053-2.162-5.88-1.861-8.323.458-1.485 1.411-2.134 3.354-2.139 4.983-.004 1.431-.119 2.416-1.23 3.646l-1.455 1.382 2.121 2.015 1.346-1.278c1.284-1.045 2.275-1.109 3.703-1.039 1.627.079 3.603-.467 5.089-1.878 2.441-2.319 2.941-6.126.888-8.288z"/>
      <path d="M13.72 11.879c.14-1.531.067-2.607-2.158-4.705L7.57 3.383c-1.206-1.145-2.918.575-1.685 1.747l4.183 3.97a.667.667 0 0 1 .024.942l-.123.13a.666.666 0 0 1-.942.023L4.826 6.208c-.689-.655-1.336-.387-1.758.058s-.656 1.104.033 1.759l4.201 3.988a.666.666 0 0 1 .024.942l-.123.129a.666.666 0 0 1-.942.025L2.079 9.138C.845 7.966-.783 9.765.423 10.909l3.992 3.792c2.21 2.114 3.288 2.131 4.811 1.911 1.226-.177 2.117-.477 3.498.836l12.161 11.546 2.012-2.118-12.161-11.547c-1.382-1.312-1.128-2.217-1.016-3.45z"/>
    </symbol>
    <symbol id="cake" viewBox="0 0 32 32">
      <path d="M27.853 17.333v1.333h-1.16c-.987 0-1.787.8-1.787 1.8v.4c0 1-.8 1.8-1.8 1.8a1.79 1.79 0 0 1-1.787-1.8v-.4c0-1-.813-1.8-1.8-1.8s-1.787.8-1.787 1.8v.4a1.8 1.8 0 0 1-3.6 0v-.4c0-1-.8-1.8-1.787-1.8s-1.8.8-1.8 1.8v.4c0 1-.8 1.8-1.787 1.8-1 0-1.8-.8-1.8-1.8v-.427c0-.987-.787-1.787-1.76-1.8H4.145v-1.307c0-1.84 1.387-3.4 3.267-3.853.373-.093.76-.147 1.173-.147h14.827c.413 0 .8.053 1.173.147 1.88.453 3.267 2.013 3.267 3.853zM24.587 9.56v1.88a5.735 5.735 0 0 0-1.173-.107H8.587c-.4 0-.787.04-1.173.12V9.56c0-1.6 1.44-2.893 3.227-2.893h10.72c1.787 0 3.227 1.293 3.227 2.893z"/>
      <path d="M11.667 4.731v1.947H10.64c-.347 0-.667.04-.973.12V4.731c0-.467.453-.867 1-.867s1 .4 1 .867zM22.333 4.438v2.36a3.317 3.317 0 0 0-.973-.133h-1.027V4.438c0-.547.453-1 1-1s1 .453 1 1zM17 3.76v2.907h-2V3.76c0-.6.453-1.093 1-1.093s1 .493 1 1.093zM29.333 28.334c0 .547-.453 1-1 1H3.666c-.547 0-1-.453-1-1s.453-1 1-1h.48v-6.693h.813v.093c0 1.787 1.173 3.44 2.92 3.827 1.36.32 2.653-.12 3.533-.987a1.303 1.303 0 0 1 1.84-.013c.693.68 1.64 1.107 2.68 1.107s1.987-.413 2.68-1.107a1.317 1.317 0 0 1 1.84.013 3.742 3.742 0 0 0 3.533.987c1.747-.387 2.92-2.04 2.92-3.827v-.067h.947v6.667h.48c.547 0 1 .453 1 1z"/>
    </symbol>
    <symbol id="instagram" viewBox="0 0 32 32">
      <path d="M31.969 9.408c-.075-1.7-.35-2.869-.744-3.882a7.803 7.803 0 0 0-1.85-2.838A7.867 7.867 0 0 0 26.543.844C25.524.45 24.361.175 22.661.1 20.948.019 20.404 0 16.06 0s-4.888.019-6.595.094c-1.7.075-2.869.35-3.882.744a7.803 7.803 0 0 0-2.838 1.85A7.867 7.867 0 0 0 .901 5.52C.507 6.539.232 7.702.157 9.402c-.081 1.713-.1 2.257-.1 6.601s.019 4.888.094 6.595c.075 1.7.35 2.869.744 3.882a7.895 7.895 0 0 0 1.85 2.838 7.867 7.867 0 0 0 2.832 1.844c1.019.394 2.182.669 3.882.744 1.706.075 2.25.094 6.595.094s4.888-.018 6.595-.094c1.7-.075 2.869-.35 3.882-.744a8.181 8.181 0 0 0 4.682-4.682c.394-1.019.669-2.182.744-3.882.075-1.707.094-2.251.094-6.595s-.006-4.888-.081-6.595zm-2.882 13.065c-.069 1.563-.331 2.407-.55 2.969a5.307 5.307 0 0 1-3.038 3.038c-.563.219-1.413.481-2.969.55-1.688.075-2.194.094-6.464.094s-4.782-.018-6.464-.094c-1.563-.069-2.407-.331-2.969-.55a4.926 4.926 0 0 1-1.838-1.194 4.974 4.974 0 0 1-1.194-1.838c-.219-.563-.481-1.413-.55-2.969-.075-1.688-.094-2.194-.094-6.464s.019-4.782.094-6.464c.069-1.563.331-2.407.55-2.969a4.868 4.868 0 0 1 1.2-1.838A4.974 4.974 0 0 1 6.639 3.55c.563-.219 1.413-.481 2.969-.55 1.688-.075 2.194-.094 6.464-.094 4.276 0 4.782.019 6.464.094 1.563.069 2.407.331 2.969.55a4.914 4.914 0 0 1 1.838 1.194 4.974 4.974 0 0 1 1.194 1.838c.219.563.481 1.413.55 2.969.075 1.688.094 2.194.094 6.464s-.019 4.77-.094 6.457z"/>
      <path d="M16.059 7.782c-4.538 0-8.22 3.682-8.22 8.22s3.682 8.22 8.22 8.22 8.22-3.682 8.22-8.22-3.682-8.22-8.22-8.22zm0 13.553a5.333 5.333 0 0 1 0-10.664 5.333 5.333 0 0 1 0 10.664zM26.524 7.457a1.919 1.919 0 1 1-3.838 0 1.919 1.919 0 0 1 3.838 0z"/>
    </symbol>
    <symbol id="facebook" viewBox="0 0 32 32">
      <path d="M21.329 5.313h2.921V.225C23.746.156 22.013 0 19.994 0c-4.212 0-7.097 2.649-7.097 7.519V12H8.249v5.688h4.648V32h5.699V17.689h4.46l.708-5.688h-5.169V8.082c.001-1.644.444-2.769 2.735-2.769z"/>
    </symbol>
    <symbol id="scroll-up" viewBox="0 0 32 32">
      <path fill="#fff" d="M4.5 19.6 15.7 8.367c.133-.133.278-.228.433-.283s.322-.084.5-.084.344.028.5.084c.156.055.3.149.433.283L28.799 19.6c.311.311.467.7.467 1.167s-.167.867-.5 1.2c-.333.333-.722.5-1.167.5s-.833-.167-1.167-.5l-9.8-9.8-9.8 9.8c-.311.311-.694.467-1.149.467s-.851-.167-1.184-.5-.5-.722-.5-1.167c0-.444.167-.833.5-1.167z" style="fill:var(--color1, #fff)"/>
    </symbol>
  </defs>
</svg>